<svg xmlns="http://www.w3.org/2000/svg" viewBox="0 0 409.78 94.26"><defs><style>.cls-1{fill:#2e2f30;}.cls-2{fill:#ea6926;}</style></defs><g id="Livello_2" data-name="Livello 2"><g id="Livello_1-2" data-name="Livello 1"><polygon class="cls-1" points="0 0.72 0 93.23 24.77 93.23 24.77 58.06 57.34 58.06 57.34 38.02 24.77 38.02 24.77 20.96 59.4 20.96 59.4 0.72 0 0.72"/><polygon class="cls-1" points="76.86 0.72 76.86 93.23 138.8 93.23 138.8 72.99 101.64 72.99 101.64 55.93 134.89 55.93 134.89 35.9 101.64 35.9 101.64 20.96 136.88 20.96 136.88 0.72 76.86 0.72"/><path class="cls-1" d="M154.69,2c5.59-1,17.81-2,29.23-2,13.08,0,21,.92,28.21,4.53,7.21,3.36,12.46,10,12.46,19,0,7.78-4.26,15.37-15,19.41v.35c11.32,3.06,18.12,11.46,18.12,22.44,0,8.72-4.22,15.55-10.36,20.18-7,5.22-18.46,8.3-38.3,8.3a163.41,163.41,0,0,1-24.36-1.51Zm24.53,34.35h5c10.46,0,15.54-3.71,15.54-9.68,0-5.42-4.11-8.85-12.42-8.85a43.36,43.36,0,0,0-8.1.55Zm0,39.5a51.91,51.91,0,0,0,7.14.27c8.23,0,15.27-3.29,15.27-11.43,0-7.82-7.17-10.84-16.47-10.84h-5.94Z"/><path class="cls-1" d="M266.9,71.79l-5.22,21.44H236.05L262.88.72h33l27.59,92.51H296.71l-5.9-21.44ZM287.42,53.5l-4.29-16.65c-1.41-5.21-3.16-12.76-4.6-18.22h-.28c-1.37,5.46-2.74,13.08-4.08,18.33l-4,16.54Z"/><path class="cls-2" d="M381.13,93.23,374.3,78.1c-2.71-5.9-4.74-10.6-7.14-16h-.27c-1.65,5.36-3.74,10.16-6,15.86l-6.14,15.23H326.57l26.05-46.84L327.46.72h28.48l6.28,14.72c2.4,5.49,4.15,10,6.18,15.27h.37c2.06-6,3.47-10.09,5.39-15.2L379.86.72H408.1L383,45.88l26.83,47.35Z"/></g></g></svg>